<?xml version="1.0" encoding="UTF-8" standalone="no"?>
<svg width="435px" height="78px" viewBox="0 0 435 78" version="1.1" xmlns="http://www.w3.org/2000/svg" xmlns:xlink="http://www.w3.org/1999/xlink">
    <!-- Generator: Sketch 40.3 (33839) - http://www.bohemiancoding.com/sketch -->
    <title>Page 1</title>
    <desc>Created with Sketch.</desc>
    <defs></defs>
    <g id="Welcome" stroke="none" stroke-width="1" fill="none" fill-rule="evenodd">
        <g id="Desktop-HD" transform="translate(-502.000000, -82.000000)">
            <g id="Page-1" transform="translate(502.000000, 82.000000)">
                <polygon id="Fill-1" fill="#FEFEFE" points="14.5136706 7.78371429 0.00028496732 77.9651429 412.494756 77.9651429 420.831475 31.6137143 415.890141 31.6137143 408.431122 73.0908571 5.97462484 73.0908571 18.4718667 12.6594286 158.913736 12.6594286 159.908272 7.78371429"></polygon>
                <polygon id="Fill-2" fill="#FEFEFE" points="399.769682 12.6588571 400.477826 7.78314286 265.23946 7.78314286 264.246349 12.6588571"></polygon>
                <g id="Group-34" transform="translate(37.045752, 0.394286)">
                    <path d="M8.09834379,48.8505714 C7.99860523,49.4534286 7.96440915,49.6877143 7.96440915,50.022 C7.96440915,50.6248571 8.33201699,51.0262857 8.93329804,51.1605714 C9.56735033,51.2948571 11.4039647,51.3948571 13.1066444,51.3948571 C15.9107229,51.3948571 18.7475725,51.3277143 19.5839516,51.2277143 C21.6200431,50.9934286 22.4208013,50.2905714 22.4208013,48.7834286 C22.4208013,48.1477143 22.1201608,47.6791429 21.6200431,47.512 C20.9517948,47.2777143 20.9517948,47.2777143 17.4139255,47.2448571 L11.2700301,47.2448571 C8.23227843,47.2448571 6.36146797,47.0777143 5.29426536,46.742 C3.62435686,46.2062857 2.79082745,45.0691429 2.79082745,43.2948571 C2.79082745,40.7177143 3.82525882,37.4705714 5.09478824,36.0648571 C6.92997778,34.022 9.73405621,33.4877143 18.446932,33.4877143 C25.0909451,33.4877143 26.7266575,33.6205714 28.3637948,34.2577143 C29.7316379,34.792 30.4326575,35.8977143 30.4326575,37.5705714 C30.4326575,38.3748571 30.332919,39.1777143 29.9980824,40.4834286 L23.4210366,40.4834286 C23.4880039,40.1148571 23.5222,39.8805714 23.5222,39.7134286 C23.5222,38.5077143 22.7214418,38.2734286 18.8145399,38.2734286 C16.0446575,38.2734286 13.0738732,38.3748571 12.0038209,38.4748571 C10.6359778,38.6091429 9.80102353,39.4791429 9.80102353,40.7505714 C9.80102353,41.2191429 10.0019255,41.5877143 10.3011412,41.7891429 C10.869651,42.1562857 10.9038471,42.1562857 13.6067621,42.2234286 L19.9173634,42.2234286 C20.3177425,42.2234286 21.4519124,42.2562857 23.2215595,42.3234286 C25.6908013,42.4234286 26.4929843,42.5248571 27.4604484,42.9934286 C28.7969451,43.562 29.4309974,44.6662857 29.4309974,46.3734286 C29.4309974,48.9177143 28.4963046,51.9634286 27.2282,53.4705714 C25.4243569,55.612 22.6202784,56.1477143 13.3403176,56.1477143 C7.4642915,56.1477143 5.6618732,56.0477143 3.92499739,55.6791429 C1.8547098,55.2105714 0.92144183,54.1391429 0.92144183,52.2991429 C0.92144183,51.2948571 1.02118039,50.592 1.45575556,48.8505714 L8.09834379,48.8505714 Z" id="Fill-3" fill="#FEFEFE"></path>
                    <path d="M44.2854889,33.6545714 L42.2493974,43.3617143 C42.1824301,43.7302857 42.0826915,44.1645714 41.9487569,44.7002857 C41.4814105,46.8417143 41.3489007,47.6117143 41.3489007,48.3817143 C41.3489007,50.3231429 42.5828092,50.826 47.2890444,50.826 C52.7646915,50.826 54.1339595,50.6588571 55.0686523,49.7874286 C55.7696719,49.1517143 56.170051,48.2817143 56.6046261,46.3074286 C56.7043647,45.906 56.7043647,45.906 56.9380379,44.8345714 C57.0377765,44.2645714 57.0719725,44.0645714 57.1047438,43.8974286 L59.2747699,33.6545714 L66.0854889,33.6545714 L63.582051,45.3702857 C62.4122601,51.3617143 61.4447961,53.1345714 58.4070444,54.8417143 C55.7354758,56.0802857 55.3023255,56.1474286 46.9228614,56.1802857 C39.4111229,56.1145714 38.7770706,56.0802857 37.1085869,55.3774286 C35.2050052,54.6074286 34.2033451,53.1345714 34.2033451,51.126 C34.2033451,49.5874286 34.3372797,48.6502857 34.971332,45.6702857 L37.508966,33.6545714 L44.2854889,33.6545714 Z" id="Fill-5" fill="#FEFEFE"></path>
                    <path d="M87.849868,42.5577143 C89.4186131,42.5577143 89.9529268,42.4577143 90.4544693,42.0891429 C91.0215542,41.6877143 91.3891621,40.8505714 91.3891621,40.1148571 C91.3891621,39.412 91.1227176,38.9762857 90.5214366,38.7762857 C90.1196327,38.642 89.8189922,38.6091429 88.5181163,38.6091429 L77.3003778,38.6091429 L76.4668484,42.5577143 L87.849868,42.5577143 Z M86.8154366,51.0262857 C88.4183778,51.0262857 88.7517895,50.992 89.2861033,50.692 C89.9529268,50.2905714 90.421698,49.3534286 90.421698,48.4491429 C90.421698,47.7462857 90.1538288,47.3105714 89.619515,47.1105714 C89.2519072,46.9762857 88.9854627,46.9434286 87.4822601,46.9434286 L75.5321556,46.9434286 L74.6972013,51.0262857 L86.8154366,51.0262857 Z M71.7591882,33.6548571 L91.8565085,33.6548571 C94.4269137,33.6548571 95.7619856,33.8548571 96.7636458,34.4577143 C97.9662078,35.1277143 98.4990967,36.0977143 98.4990967,37.5705714 C98.4990967,39.4448571 97.8650444,41.7877143 97.0642863,42.9262857 C96.3290706,43.9305714 95.5625085,44.332 93.7928614,44.6662857 C96.0953974,44.9005714 97.1982209,46.0062857 97.1982209,47.9805714 C97.1982209,50.3577143 96.229332,52.8334286 94.7617503,54.172 C93.325515,55.5448571 91.6556065,55.9805714 88.0507699,55.9805714 L67.0187569,55.9805714 L71.7591882,33.6548571 Z" id="Fill-7" fill="#FEFEFE"></path>
                    <polygon id="Fill-9" fill="#FEFEFE" points="105.77531 33.6545714 112.551833 33.6545714 107.811401 55.9802857 101.034878 55.9802857"></polygon>
                    <polygon id="Fill-11" fill="#FEFEFE" points="142.998026 33.6545714 141.930824 38.7088571 123.969333 38.7088571 123.134379 42.5574286 140.12698 42.5574286 139.193712 46.976 122.201111 46.976 121.364732 50.926 139.594092 50.926 138.524039 55.9802857 113.620745 55.9802857 118.361176 33.6545714"></polygon>
                    <path d="M171.140686,50.6582857 C173.444647,50.6582857 174.078699,50.524 174.979196,49.9211429 C175.948085,49.2854286 176.480974,48.2154286 177.082255,45.604 C177.484059,43.864 177.650765,42.6925714 177.650765,41.8882857 C177.650765,39.8468571 176.748843,39.2111429 173.711092,39.2111429 L162.225484,39.2111429 L159.789013,50.6582857 L171.140686,50.6582857 Z M156.618752,33.654 L175.846922,33.654 C179.52015,33.654 181.455078,33.9897143 182.757379,34.7925714 C184.160843,35.6625714 184.860438,37.0354286 184.860438,38.9425714 C184.860438,41.3525714 183.659301,47.3111429 182.523706,50.424 C181.554817,53.1011429 179.285052,55.144 176.748843,55.6454286 C175.480739,55.914 174.412111,55.9797143 172.008412,55.9797143 L151.87832,55.9797143 L156.618752,33.654 Z" id="Fill-13" fill="#FEFEFE"></path>
                    <path d="M197.077272,40.7172857 C196.343481,41.9887143 195.307625,46.4072857 195.307625,48.3158571 C195.307625,50.3901429 196.309285,50.7587143 202.052801,50.7587143 C205.056357,50.7587143 206.759037,50.7244286 207.927403,50.6244286 C210.532004,50.3901429 211.499468,49.3858571 212.300226,46.1401429 C212.868736,43.6287143 213.13518,42.123 213.13518,41.2187143 C213.13518,39.1101429 212.367193,38.8758571 205.523703,38.8758571 C199.080592,38.8758571 197.979193,39.1101429 197.077272,40.7172857 M218.109285,34.4915714 C219.512749,35.1944286 220.24654,36.7672857 220.24654,39.043 C220.24654,40.2144286 220.012867,41.7215714 219.145141,45.7372857 C218.310187,49.5201429 217.609167,51.3944286 216.373834,52.9001429 C214.70535,54.9087143 212.501128,55.8458571 208.862095,56.0801429 C207.460056,56.1472857 204.556239,56.2144286 201.58403,56.2144286 C193.805847,56.2144286 192.003429,56.0472857 190.166814,55.143 C188.764775,54.4401429 188.030984,52.9001429 188.030984,50.6587143 C188.030984,49.353 188.3302,47.6115714 189.299089,43.1944286 C190.567193,37.303 192.170135,35.1615714 196.109808,34.0901429 C198.046161,33.5544286 200.216187,33.4201429 205.889886,33.4201429 C214.872056,33.4201429 216.172932,33.5201429 218.109285,34.4915714" id="Fill-15" fill="#FEFEFE"></path>
                    <path d="M251.925217,47.5787143 C251.191426,51.093 250.823818,52.1301429 250.02306,53.2015714 C248.554054,55.1772857 246.418224,55.913 241.810302,56.0801429 C240.775871,56.1144286 237.604184,56.1472857 234.76591,56.1472857 C228.557897,56.1472857 226.587348,55.8458571 224.951635,54.6744286 C223.883008,53.9387143 223.38289,52.633 223.38289,50.6244286 C223.38289,48.9515714 223.915779,45.8058571 224.817701,42.1901429 C225.986067,37.403 227.388106,35.5287143 230.659531,34.3572857 C232.528916,33.6872857 234.76591,33.4872857 240.040655,33.4872857 C246.784407,33.4872857 249.121139,33.6215714 250.590145,34.0901429 C252.560694,34.7258571 253.42842,35.8972857 253.42842,38.0058571 C253.42842,38.9758571 253.294485,39.8801429 252.926877,41.4872857 L246.450995,41.4872857 C246.517962,41.0515714 246.550733,40.8172857 246.550733,40.583 C246.550733,39.043 245.816942,38.843 240.375492,38.843 C236.735034,38.843 235.033779,38.9101429 234.298563,39.1101429 C232.528916,39.5787143 231.961831,40.3815714 231.260812,43.2615714 C230.659531,45.8387143 230.425858,47.1772857 230.425858,48.2487143 C230.425858,50.323 231.394746,50.7244286 236.635295,50.7244286 C241.744759,50.7244286 242.545518,50.6587143 243.512982,50.2572857 C244.547413,49.8544286 245.014759,49.1858571 245.382367,47.5787143 L251.925217,47.5787143 Z" id="Fill-17" fill="#FEFEFE"></path>
                    <polygon id="Fill-19" fill="#FEFEFE" points="266.647769 39.1772857 256.732331 39.1772857 257.900697 33.6544286 284.508095 33.6544286 283.339729 39.1772857 273.424292 39.1772857 269.852226 55.9801429 263.075703 55.9801429"></polygon>
                    <path d="M293.353054,40.7172857 C292.619263,41.9887143 291.583407,46.4072857 291.583407,48.3158571 C291.583407,50.3901429 292.585067,50.7587143 298.328583,50.7587143 C301.332139,50.7587143 303.034818,50.7244286 304.203184,50.6244286 C306.807786,50.3901429 307.77525,49.3858571 308.576008,46.1401429 C309.144518,43.6287143 309.410962,42.123 309.410962,41.2187143 C309.410962,39.1101429 308.642975,38.8758571 301.799485,38.8758571 C295.356374,38.8758571 294.254975,39.1101429 293.353054,40.7172857 M314.385067,34.4915714 C315.788531,35.1944286 316.522322,36.7672857 316.522322,39.043 C316.522322,40.2144286 316.288648,41.7215714 315.420923,45.7372857 C314.585969,49.5201429 313.884949,51.3944286 312.649616,52.9001429 C310.981132,54.9087143 308.77691,55.8458571 305.137877,56.0801429 C303.735838,56.1472857 300.832021,56.2144286 297.859812,56.2144286 C290.081629,56.2144286 288.27921,56.0472857 286.442596,55.143 C285.040557,54.4401429 284.306766,52.9001429 284.306766,50.6587143 C284.306766,49.353 284.605982,47.6115714 285.574871,43.1944286 C286.842975,37.303 288.445916,35.1615714 292.38559,34.0901429 C294.321942,33.5544286 296.491969,33.4201429 302.165668,33.4201429 C311.147838,33.4201429 312.448714,33.5201429 314.385067,34.4915714" id="Fill-21" fill="#FEFEFE"></path>
                    <path d="M338.286701,44.9012857 C340.255825,44.9012857 341.023812,44.767 341.690635,44.3312857 C342.226374,43.9641429 342.460047,43.4955714 342.726492,42.3898571 C342.860426,41.7212857 342.960165,41.0512857 342.960165,40.6841429 C342.960165,39.9812857 342.626753,39.5127143 341.959929,39.3112857 C341.424191,39.1441429 341.223289,39.1441429 339.754282,39.1441429 L328.905576,39.1441429 L327.670243,44.9012857 L338.286701,44.9012857 Z M323.330191,33.6541429 L342.527014,33.6541429 C348.435812,33.6541429 350.104295,34.6255714 350.104295,38.0398571 C350.104295,40.6841429 349.370505,43.7298571 348.403041,45.2355714 C347.53389,46.5412857 346.633393,47.077 344.630073,47.5112857 C345.630308,47.6455714 345.930949,47.6784286 346.39972,47.847 C347.099315,48.1141429 347.53389,48.717 347.53389,49.5198571 C347.53389,50.0212857 347.499694,50.3241429 347.099315,52.4655714 L346.332753,55.9798571 L339.487838,55.9798571 L340.056348,53.2012857 C340.156086,52.767 340.223054,52.3327143 340.223054,51.997 C340.223054,51.2612857 339.922413,50.7912857 339.286936,50.5584286 C338.920753,50.4241429 338.253929,50.357 336.950204,50.357 L326.534648,50.357 L325.333511,55.9798571 L318.589759,55.9798571 L323.330191,33.6541429 Z" id="Fill-23" fill="#FEFEFE"></path>
                    <polygon id="Fill-25" fill="#FEFEFE" points="155.196195 6.14242857 149.991267 6.14242857 150.603946 3.24385714 164.570195 3.24385714 163.95609 6.14242857 158.752587 6.14242857 156.878927 14.9624286 153.32111 14.9624286"></polygon>
                    <polygon id="Fill-27" fill="#FEFEFE" points="168.154799 3.24342857 171.712616 3.24342857 170.80072 7.58342857 178.879544 7.58342857 179.791439 3.24342857 183.347831 3.24342857 180.877165 14.962 177.30225 14.962 178.266864 10.482 170.188041 10.482 169.224851 14.962 165.667034 14.962"></polygon>
                    <polygon id="Fill-29" fill="#FEFEFE" points="201.093031 3.24342857 200.531646 5.89628571 191.104927 5.89628571 190.667502 7.91628571 199.585554 7.91628571 199.096835 10.2362857 190.177358 10.2362857 189.738508 12.3091429 199.306286 12.3091429 198.746325 14.962 185.67345 14.962 188.161214 3.24342857"></polygon>
                    <g id="Group-33" transform="translate(370.457516, 0.000000)" fill="#C52025">
                        <polygon id="Fill-31" points="27.0777373 7.38914286 17.6495935 7.38914286 18.9775412 0.0348571429 13.075868 0.0348571429 11.7963647 7.38914286 1.9122732 7.38914286 0.966181699 13.1577143 10.7918549 13.1577143 9.15471765 22.5634286 14.9110575 22.5634286 16.6080379 13.1577143 26.1316458 13.1577143"></polygon>
                    </g>
                </g>
            </g>
        </g>
    </g>
</svg>